<svg xmlns="http://www.w3.org/2000/svg" viewBox="0 0 615 340" font-family="Inter, Helvetica, Arial, sans-serif" role="img" aria-label="Three MSc analyses: transcriptomics, GWAS and metagenomics">
  <rect width="900" height="340" rx="10" fill="#FFFFFF"/>
  <g font-size="15" fill="#5B6B64" text-anchor="middle">
    <g transform="translate(40 40)"><rect width="250" height="230" rx="10" fill="#F2F6F4" stroke="#E1E8E4"/>
      <g stroke="#1E2A26" stroke-width="2"><path d="M40 190 H 215 M40 190 V 40" fill="none"/></g>
      <g fill="#7FA894"><circle cx="70" cy="170" r="4"/><circle cx="90" cy="160" r="4"/><circle cx="110" cy="175" r="4"/><circle cx="128" cy="150" r="4"/><circle cx="125" cy="168" r="4"/><circle cx="142" cy="172" r="4"/></g>
      <g fill="#A8483B"><circle cx="60" cy="90" r="5"/><circle cx="75" cy="120" r="5"/><circle cx="175" cy="70" r="5"/><circle cx="190" cy="105" r="5"/></g>
      <text x="125" y="218" font-weight="600" fill="#1E2A26">Transcriptomics</text></g>
    <g transform="translate(325 40)"><rect width="250" height="230" rx="10" fill="#F2F6F4" stroke="#E1E8E4"/>
      <g transform="translate(125 110)"><circle r="62" fill="#E3EBE7"/><path d="M0 0 L 0 -62 A 62 62 0 0 1 59 -19 Z" fill="#1F5C46"/><path d="M0 0 L 59 -19 A 62 62 0 0 1 20 59 Z" fill="#7FA894"/><path d="M0 0 L 20 59 A 62 62 0 0 1 -50 37 Z" fill="#A8483B"/><circle r="28" fill="#F2F6F4"/></g>
      <text x="125" y="218" font-weight="600" fill="#1E2A26">Metagenomics</text></g>
  </g>
  <text x="307" y="315" text-anchor="middle" font-size="13" fill="#8A968F">schematic, not real data</text>
</svg>
