<svg xmlns="http://www.w3.org/2000/svg" viewBox="0 0 860 150" font-family="Inter, Arial, sans-serif" font-size="12">
  <defs><marker id="a" markerWidth="8" markerHeight="8" refX="6" refY="4" orient="auto"><path d="M0,0 L8,4 L0,8 z" fill="#1F3A5F"/></marker></defs>
  <g fill="#F3F5F8" stroke="#1F3A5F" stroke-width="1.2">
    <rect x="10" y="40" width="110" height="56" rx="4"/><rect x="155" y="40" width="110" height="56" rx="4"/><rect x="300" y="40" width="110" height="56" rx="4"/>
    <rect x="445" y="40" width="110" height="56" rx="4"/><rect x="590" y="40" width="110" height="56" rx="4"/><rect x="735" y="40" width="115" height="56" rx="4"/>
  </g>
  <g fill="#1F3A5F" text-anchor="middle" font-weight="600">
    <text x="65" y="62">Download</text><text x="210" y="62">Quality control</text><text x="355" y="62">Align</text><text x="500" y="62">Assemble</text><text x="645" y="62">Count</text><text x="792" y="62">Differential</text>
  </g>
  <g fill="#44546A" text-anchor="middle" font-size="10.5">
    <text x="65" y="80">SRA Toolkit</text><text x="210" y="80">FastQC · MultiQC</text><text x="355" y="80">Bowtie2 · SAMtools</text><text x="500" y="80">StringTie</text><text x="645" y="80">featureCounts</text><text x="792" y="80">DESeq2 · PCA</text>
  </g>
  <g stroke="#1F3A5F" stroke-width="1.2" marker-end="url(#a)">
    <line x1="120" y1="68" x2="153" y2="68"/><line x1="265" y1="68" x2="298" y2="68"/><line x1="410" y1="68" x2="443" y2="68"/><line x1="555" y1="68" x2="588" y2="68"/><line x1="700" y1="68" x2="733" y2="68"/>
  </g>
  <g fill="#6B7A90" font-size="10" text-anchor="middle">
    <text x="65" y="118">30 runs, PRJNA910139</text><text x="355" y="118">MorexV3 reference</text><text x="645" y="118">gene-level matrix</text><text x="792" y="118">waterlogged vs control</text>
  </g>
  <text x="10" y="22" fill="#6B7A90" font-size="10">Each step is a SLURM job or job array on BlueBEAR</text>
</svg>
